# xmcd
#
# Track frame offsets:
# 150
# 8315
# 20906
# 30398
# 46964
# 58271
# 68390
# 80685
# 88829
# 97967
# 104168
# 113989
# 129751
# 176636
#
# Disc length: 2607 seconds
#
# Revision: 0
# Processed by: cddbd v1.5.1PL0 Copyright (c) Steve Scherf et al.
# Submitted via: Audion 3.0.2 (http://www.panic.com/audion/)
#
DISCID=ae0a2d0e
DTITLE=The Dials - Flex Time
DYEAR=1900
DGENRE=
TTITLE0=dead beat
TTITLE1=stuck inside
TTITLE2=do you want me?
TTITLE3=flex time
TTITLE4=nothing but crazy
TTITLE5=bye bye bye bye baby
TTITLE6=glass hell
TTITLE7=tick tock
TTITLE8=take it to the man
TTITLE9=phone line
TTITLE10=sick times
TTITLE11=rotten
TTITLE12=high tide
TTITLE13=Untitled Track
EXTD=
EXTT0=
EXTT1=
EXTT2=
EXTT3=
EXTT4=
EXTT5=
EXTT6=
EXTT7=
EXTT8=
EXTT9=
EXTT10=
EXTT11=
EXTT12=
EXTT13=
PLAYORDER=
